<svg width="32" height="32" viewBox="0 0 70 70" fill="none" xmlns="http://www.w3.org/2000/svg">
<rect width="70" height="70" fill="white"/>
<path d="M10.6872 19.6084C10.6872 19.1811 10.9587 18.8011 11.3628 18.6625L47.3401 6.32436C47.8625 6.1452 48.4313 6.42347 48.6104 6.94589L50.2324 11.6755C50.4116 12.1979 50.1333 12.7667 49.6109 12.9458L22.7571 22.1551C22.7104 22.1711 22.6626 22.1836 22.6141 22.1926L11.8686 24.1747C11.254 24.288 10.6872 23.8162 10.6872 23.1912L10.6872 19.6084Z" fill="#F4DDBE" stroke="#1D2635" stroke-width="2"/>
<path d="M40.5 8.5L47.687 13.3926L42.187 15.3926L34.687 10.3926L40.5 8.5Z" fill="#1D2635" stroke="#1D2635"/>
<path d="M29.687 12.8926L37.187 17.3926L31.187 19.3926L23.187 14.8926L29.687 12.8926Z" fill="#1D2635" stroke="#1D2635"/>
<path d="M16.687 16.8926L24.687 21.3926L11.687 22.8926V18.8926L16.687 16.8926Z" fill="#1D2635" stroke="#1D2635"/>
<rect x="10.687" y="22.8926" width="42" height="7" rx="1" fill="#F4DDBE" stroke="#1D2635" stroke-width="2"/>
<path d="M49.687 22.8926L44.187 29.8926H37.687L43.187 22.8926H49.687Z" fill="#1D2635" stroke="#1D2635"/>
<path d="M37.687 22.8926L32.187 29.8926H25.687L31.187 22.8926H37.687Z" fill="#1D2635" stroke="#1D2635"/>
<path d="M24.687 22.8926L19.187 29.8926H11.187V22.8926H24.687Z" fill="#1D2635" stroke="#1D2635"/>
<circle cx="14" cy="25" r="1" fill="#F4DDBE"/>
<path d="M49.687 29.8926V43.8926C49.687 51.0723 43.8667 56.8926 36.687 56.8926H28.687C21.5072 56.8926 15.687 51.0723 15.687 43.8926V29.8926H49.687Z" fill="#F4DDBE" stroke="#1D2635" stroke-width="2"/>
<path d="M11.687 40.8926C11.687 38.6834 13.4778 36.8926 15.687 36.8926V46.8926C13.4778 46.8926 11.687 45.1017 11.687 42.8926V40.8926Z" fill="#F4DDBE" stroke="#1D2635" stroke-width="2"/>
<path d="M53.687 42.8926C53.687 45.1017 51.8961 46.8926 49.687 46.8926V36.8926C51.8961 36.8926 53.687 38.6834 53.687 40.8926V42.8926Z" fill="#F4DDBE" stroke="#1D2635" stroke-width="2"/>
<path d="M54.687 41.8926H55.687C56.7915 41.8926 57.687 40.9971 57.687 39.8926V35.8926" stroke="#1D2635" stroke-width="2"/>
<circle cx="57.687" cy="33.8926" r="3" fill="#F4DDBE" stroke="#1D2635" stroke-width="2"/>
<circle cx="40" cy="40" r="4" stroke="#1D2635" stroke-width="3.3"/>
<circle cx="25" cy="40" r="4" stroke="#1D2635" stroke-width="3.3"/>
<line x1="26.5" y1="51" x2="38.5" y2="51" stroke="#1D2635" stroke-width="2" stroke-linecap="round"/>
<path d="M20.3464 62.4804C21.3795 60.9308 23.1187 60 24.9811 60H39.0189C40.8813 60 42.6205 60.9308 43.6536 62.4804C43.8017 62.7025 43.6425 63 43.3755 63H20.6245C20.3575 63 20.1983 62.7025 20.3464 62.4804Z" fill="#1D2635" stroke="#1D2635" stroke-width="2"/>
<path d="M26 57H38V60H26V57Z" fill="#1D2635" stroke="#1D2635" stroke-width="2"/>
</svg>
