<svg width="17" height="16" viewBox="0 0 17 16" fill="none" xmlns="http://www.w3.org/2000/svg">
<path fill-rule="evenodd" clip-rule="evenodd" d="M1.93311 4C1.93311 3.46957 2.14382 2.96086 2.51889 2.58579C2.89396 2.21071 3.40267 2 3.93311 2H13.2664C13.7969 2 14.3056 2.21071 14.6807 2.58579C15.0557 2.96086 15.2664 3.46957 15.2664 4V10.6667C15.2664 11.1971 15.0557 11.7058 14.6807 12.0809C14.3056 12.456 13.7969 12.6667 13.2664 12.6667H5.71111C5.56686 12.6667 5.4265 12.7135 5.31111 12.8L2.99977 14.5333C2.90073 14.6076 2.78295 14.6529 2.65964 14.664C2.53633 14.6751 2.41237 14.6517 2.30163 14.5963C2.19089 14.5409 2.09776 14.4558 2.03267 14.3505C1.96758 14.2452 1.93311 14.1238 1.93311 14V4ZM5.26644 4C5.08963 4 4.92006 4.07024 4.79503 4.19526C4.67001 4.32029 4.59977 4.48986 4.59977 4.66667C4.59977 4.84348 4.67001 5.01305 4.79503 5.13807C4.92006 5.2631 5.08963 5.33333 5.26644 5.33333H11.9331C12.1099 5.33333 12.2795 5.2631 12.4045 5.13807C12.5295 5.01305 12.5998 4.84348 12.5998 4.66667C12.5998 4.48986 12.5295 4.32029 12.4045 4.19526C12.2795 4.07024 12.1099 4 11.9331 4H5.26644ZM5.26644 6.66667C5.08963 6.66667 4.92006 6.7369 4.79503 6.86193C4.67001 6.98695 4.59977 7.15652 4.59977 7.33333C4.59977 7.51014 4.67001 7.67971 4.79503 7.80474C4.92006 7.92976 5.08963 8 5.26644 8H11.9331C12.1099 8 12.2795 7.92976 12.4045 7.80474C12.5295 7.67971 12.5998 7.51014 12.5998 7.33333C12.5998 7.15652 12.5295 6.98695 12.4045 6.86193C12.2795 6.7369 12.1099 6.66667 11.9331 6.66667H5.26644ZM5.26644 9.33333C5.08963 9.33333 4.92006 9.40357 4.79503 9.5286C4.67001 9.65362 4.59977 9.82319 4.59977 10C4.59977 10.1768 4.67001 10.3464 4.79503 10.4714C4.92006 10.5964 5.08963 10.6667 5.26644 10.6667H7.9331C8.10992 10.6667 8.27949 10.5964 8.40451 10.4714C8.52953 10.3464 8.59977 10.1768 8.59977 10C8.59977 9.82319 8.52953 9.65362 8.40451 9.5286C8.27949 9.40357 8.10992 9.33333 7.9331 9.33333H5.26644Z" fill="#64617E"/>
</svg>
