<svg width="11" height="11" viewBox="0 0 11 11" fill="none" xmlns="http://www.w3.org/2000/svg">
<path fill-rule="evenodd" clip-rule="evenodd" d="M0.922951 0.436912C1.30551 0.0543579 1.92575 0.0543579 2.3083 0.436912L10.6204 8.74902C11.003 9.13158 11.003 9.75182 10.6204 10.1344C10.2379 10.5169 9.61762 10.5169 9.23506 10.1344L0.922951 1.82226C0.540397 1.43971 0.540397 0.819467 0.922951 0.436912Z" fill="#B1AEC7"/>
<path fill-rule="evenodd" clip-rule="evenodd" d="M0.922951 10.1344C0.540397 9.75182 0.540397 9.13158 0.922951 8.74902L9.23506 0.436912C9.61762 0.0543577 10.2379 0.0543581 10.6204 0.436912C11.003 0.819467 11.003 1.43971 10.6204 1.82226L2.3083 10.1344C1.92575 10.5169 1.30551 10.5169 0.922951 10.1344Z" fill="#B1AEC7"/>
</svg>
