<svg width="25" height="24" viewBox="0 0 25 24" fill="none" xmlns="http://www.w3.org/2000/svg">
<path d="M14 6.00005C14 6.8285 13.3285 7.5001 12.5001 7.5001C11.6718 7.5001 11.0002 6.8285 11.0002 6.00005C11.0002 5.17159 11.6718 4.5 12.5001 4.5C13.3285 4.5 14 5.17159 14 6.00005Z" fill="#B1AEC7"/>
<path d="M13.9998 12.0012C13.9998 12.8297 13.3282 13.5013 12.4999 13.5013C11.6715 13.5013 11 12.8297 11 12.0012C11 11.1728 11.6715 10.5012 12.4999 10.5012C13.3282 10.5012 13.9998 11.1728 13.9998 12.0012Z" fill="#B1AEC7"/>
<path d="M13.9998 18C13.9998 18.8284 13.3282 19.5 12.4999 19.5C11.6715 19.5 11 18.8284 11 18C11 17.1715 11.6715 16.4999 12.4999 16.4999C13.3282 16.4999 13.9998 17.1715 13.9998 18Z" fill="#B1AEC7"/>
</svg>
