<svg width="17" height="16" viewBox="0 0 17 16" fill="none" xmlns="http://www.w3.org/2000/svg">
<path fill-rule="evenodd" clip-rule="evenodd" d="M4.35049 2.0499C4.35049 1.69092 4.6415 1.3999 5.00049 1.3999H12.5005C13.964 1.3999 15.1505 2.58635 15.1505 4.0499V11.5499C15.1505 11.9089 14.8595 12.1999 14.5005 12.1999C14.1415 12.1999 13.8505 11.9089 13.8505 11.5499V4.0499C13.8505 3.30432 13.2461 2.6999 12.5005 2.6999H5.00049C4.6415 2.6999 4.35049 2.40889 4.35049 2.0499Z" fill="#64617E"/>
<path fill-rule="evenodd" clip-rule="evenodd" d="M3.00049 3.5499C2.4482 3.5499 2.00049 3.99762 2.00049 4.5499V13.5499C2.00049 14.1022 2.4482 14.5499 3.00049 14.5499H12.0005C12.5528 14.5499 13.0005 14.1022 13.0005 13.5499V4.5499C13.0005 3.99762 12.5528 3.5499 12.0005 3.5499H3.00049ZM6.35882 10.9181L4.94549 9.5048C4.68549 9.2448 4.68549 8.8248 4.94549 8.56481C5.20549 8.3048 5.62549 8.3048 5.88549 8.56481L6.82549 9.5048L9.18549 7.1448C9.44549 6.8848 9.86549 6.8848 10.1255 7.1448C10.3855 7.4048 10.3855 7.8248 10.1255 8.08481L7.29882 10.9115C7.04549 11.1781 6.61882 11.1781 6.35882 10.9181Z" fill="#64617E"/>
</svg>
