<svg width="17" height="16" viewBox="0 0 17 16" fill="none" xmlns="http://www.w3.org/2000/svg">
<path d="M9.37945 1.33203H4.59945C3.86611 1.33203 3.26611 1.93203 3.26611 2.66536V13.332C3.26611 14.0654 3.86611 14.6654 4.59945 14.6654H12.5994C13.3328 14.6654 13.9328 14.0654 13.9328 13.332V5.88537C13.9328 5.53203 13.7928 5.19203 13.5394 4.94536L10.3194 1.72536C10.0728 1.47203 9.73278 1.33203 9.37945 1.33203ZM11.2661 9.9987C11.2661 11.5587 9.92611 12.8054 8.33945 12.652C6.95278 12.5187 5.93278 11.2787 5.93278 9.88537V6.42537C5.93278 5.55203 6.55945 4.7587 7.42611 4.67203C8.42611 4.57203 9.26611 5.35203 9.26611 6.33203V9.33203C9.26611 9.6987 8.96611 9.9987 8.59945 9.9987C8.23278 9.9987 7.93278 9.6987 7.93278 9.33203V6.33203C7.93278 6.14537 7.78611 5.9987 7.59945 5.9987C7.41278 5.9987 7.26611 6.14537 7.26611 6.33203V9.92537C7.26611 10.592 7.71945 11.2054 8.37278 11.312C9.21278 11.452 9.93278 10.8054 9.93278 9.9987V7.9987C9.93278 7.63203 10.2328 7.33203 10.5994 7.33203C10.9661 7.33203 11.2661 7.63203 11.2661 7.9987V9.9987ZM9.93278 4.66536V2.66536L12.5994 5.33203H10.5994C10.2328 5.33203 9.93278 5.03203 9.93278 4.66536Z" fill="#64617E"/>
</svg>
