<svg width="17" height="16" viewBox="0 0 17 16" fill="none" xmlns="http://www.w3.org/2000/svg">
<path fill-rule="evenodd" clip-rule="evenodd" d="M6.06657 1.33325C6.43476 1.33325 6.73324 1.63173 6.73324 1.99992V2.33325H10.3999V1.99992C10.3999 1.63173 10.6984 1.33325 11.0666 1.33325C11.4348 1.33325 11.7332 1.63173 11.7332 1.99992V2.33325H13.0666C13.5086 2.33325 13.9325 2.50885 14.2451 2.82141C14.5576 3.13397 14.7332 3.55789 14.7332 3.99992V12.9999C14.7332 13.4419 14.5576 13.8659 14.2451 14.1784C13.9325 14.491 13.5086 14.6666 13.0666 14.6666H4.06657C3.62454 14.6666 3.20062 14.491 2.88806 14.1784C2.5755 13.8659 2.3999 13.4419 2.3999 12.9999V3.99992C2.3999 3.55789 2.5755 3.13397 2.88806 2.82141C3.20062 2.50885 3.62454 2.33325 4.06657 2.33325H5.3999V1.99992C5.3999 1.63173 5.69838 1.33325 6.06657 1.33325ZM5.3999 3.66659H4.06657C3.97816 3.66659 3.89338 3.7017 3.83087 3.76422C3.76835 3.82673 3.73324 3.91151 3.73324 3.99992V5.33325H13.3999V3.99992C13.3999 3.91151 13.3648 3.82673 13.3023 3.76422C13.2398 3.7017 13.155 3.66659 13.0666 3.66659H11.7332V3.99992C11.7332 4.36811 11.4348 4.66659 11.0666 4.66659C10.6984 4.66659 10.3999 4.36811 10.3999 3.99992V3.66659H6.73324V3.99992C6.73324 4.36811 6.43476 4.66659 6.06657 4.66659C5.69838 4.66659 5.3999 4.36811 5.3999 3.99992V3.66659ZM8.56657 7.58325C8.93476 7.58325 9.23324 7.88173 9.23324 8.24992V9.33325H10.3166C10.6848 9.33325 10.9832 9.63173 10.9832 9.99992C10.9832 10.3681 10.6848 10.6666 10.3166 10.6666H9.23324V11.7499C9.23324 12.1181 8.93476 12.4166 8.56657 12.4166C8.19838 12.4166 7.8999 12.1181 7.8999 11.7499V10.6666H6.81657C6.44838 10.6666 6.1499 10.3681 6.1499 9.99992C6.1499 9.63173 6.44838 9.33325 6.81657 9.33325H7.8999V8.24992C7.8999 7.88173 8.19838 7.58325 8.56657 7.58325Z" fill="#64617E"/>
</svg>
