<svg width="17" height="16" viewBox="0 0 17 16" fill="none" xmlns="http://www.w3.org/2000/svg">
<path d="M8.07463 2.56958C8.29064 2.14347 8.89922 2.14347 9.11523 2.56958L10.55 5.3999C10.6348 5.5672 10.7949 5.68352 10.9803 5.71248L14.1154 6.20243C14.5874 6.27619 14.7755 6.85499 14.437 7.19209L12.1886 9.43128C12.0557 9.56364 11.9945 9.75184 12.0242 9.93704L12.5271 13.0702C12.6028 13.5419 12.1104 13.8996 11.6852 13.6818L8.86083 12.2354C8.69387 12.1499 8.49599 12.1499 8.32904 12.2354L5.50464 13.6818C5.07944 13.8996 4.58708 13.5419 4.66278 13.0702L5.16564 9.93704C5.19536 9.75184 5.13421 9.56364 5.0013 9.43128L2.75288 7.19209C2.41438 6.85499 2.60245 6.27619 3.07444 6.20243L6.20961 5.71248C6.39494 5.68352 6.55503 5.5672 6.63984 5.3999L8.07463 2.56958Z" fill="#E62F2F"/>
</svg>
